<svg width="25" height="25" fill="none" xmlns="http://www.w3.org/2000/svg"><path clip-rule="evenodd" d="M24 18.22v3.462a2.316 2.316 0 01-2.521 2.308 22.916 22.916 0 01-9.98-3.543 22.528 22.528 0 01-6.94-6.924A22.812 22.812 0 011.01 3.516a2.305 2.305 0 01.596-1.764A2.315 2.315 0 013.31 1h3.47a2.311 2.311 0 012.313 1.985c.146 1.108.418 2.196.81 3.243a2.305 2.305 0 01-.521 2.436l-1.469 1.465a18.485 18.485 0 006.939 6.925l1.469-1.465a2.316 2.316 0 012.44-.52c1.049.39 2.139.662 3.25.808a2.31 2.31 0 011.988 2.343z" stroke="#fff" stroke-width="2" stroke-linecap="round" stroke-linejoin="round"/></svg>