<svg width="30" height="30" fill="none" xmlns="http://www.w3.org/2000/svg"><circle cx="15" cy="15" r="15" fill="#1AB0CE"/><path d="M18.597 17.34c0 .971-.32 1.692-.957 2.161-.634.465-1.506.697-2.619.697-.793 0-1.465-.143-2.016-.43-.547-.292-.937-.659-1.17-1.101l1.553-1.06c.168.26.378.47.629.63.25.159.592.239 1.025.239.547 0 .943-.105 1.19-.315.25-.21.375-.53.375-.964 0-.875-.578-1.312-1.736-1.312h-.84V14.23h.73c.58 0 1.001-.114 1.265-.341.265-.228.397-.524.397-.889a.876.876 0 00-.287-.67c-.192-.178-.506-.267-.944-.267-.437 0-.788.071-1.052.212a1.83 1.83 0 00-.67.63l-1.538-1.08c.373-.507.825-.88 1.353-1.122.533-.241 1.217-.362 2.05-.362.634 0 1.186.1 1.655.3.474.197.832.47 1.074.82.241.352.362.753.362 1.204 0 1.235-.638 2.01-1.914 2.324.624.041 1.128.278 1.51.711.383.429.575.976.575 1.64z" fill="#fff"/></svg>